<svg width="34" height="51" viewBox="0 0 34 51" fill="none" xmlns="http://www.w3.org/2000/svg">
<g id="Vector">
<path d="M16.5616 0L32.1233 9.06161L16.5616 20.5L1.00004 9.06161L16.5616 0Z" fill="#FF6400"/>
<path d="M4.54688 17.1362C4.35242 17.9895 4.25 18.8761 4.25 19.7858C4.25 26.5736 9.95557 32.0714 17 32.0714C24.0444 32.0714 29.75 26.5736 29.75 19.7858C29.75 18.6813 29.599 17.611 29.3157 16.5929L25.491 19.4042C25.4969 19.5306 25.5 19.6578 25.5 19.7858C25.5 24.3109 21.6963 27.9762 17 27.9762C12.3937 27.9762 8.64612 24.45 8.50415 20.0449L4.54688 17.1362Z" fill="#575757"/>
<path d="M17 34.119C7.61121 34.119 0 41.453 0 50.5H4.25C4.25 43.7148 9.95837 38.2142 17 38.2142C24.0416 38.2142 29.75 43.7148 29.75 50.5H34C34 41.453 26.3889 34.119 17 34.119Z" fill="#575757"/>
</g>
</svg>
