<svg width="40" height="48" viewBox="0 0 40 48" fill="none" xmlns="http://www.w3.org/2000/svg">
<g id="Vector">
<path fill-rule="evenodd" clip-rule="evenodd" d="M31.1111 4.36364H37.7778C39.0051 4.36364 40 5.34048 40 6.54545V45.8182C40 47.0232 39.0051 48 37.7778 48H2.22222C0.994933 48 0 47.0232 0 45.8182V6.54545C0 5.34048 0.994933 4.36364 2.22222 4.36364H8.88889V0H13.3333V4.36364H26.6667V0H31.1111V4.36364ZM31.1111 8.72727V13.0909H26.6667V8.72727H13.3333V13.0909H8.88889V8.72727H4.44444V43.6364H35.5556V8.72727H31.1111Z" fill="#575757"/>
<path fill-rule="evenodd" clip-rule="evenodd" d="M31.1111 17.4545H8.88889V21.8182H31.1111V17.4545ZM31.1111 26.1818H8.88889V30.5455H31.1111V26.1818Z" fill="#FF6400"/>
</g>
</svg>
