<svg width="41" height="45" viewBox="0 0 41 45" fill="none" xmlns="http://www.w3.org/2000/svg">
<g id="Vector">
<path fill-rule="evenodd" clip-rule="evenodd" d="M21.6069 0.305118L40.4777 11.5726C40.9869 11.8768 41.1522 12.5344 40.8467 13.0413C40.7556 13.192 40.6289 13.3181 40.4777 13.4085L20.4999 25.3369L0.522451 13.4085C0.0129978 13.1044 -0.152216 12.4468 0.153469 11.9398C0.244305 11.7891 0.371028 11.663 0.522451 11.5726L19.393 0.305118C20.0744 -0.101706 20.9255 -0.101706 21.6069 0.305118ZM20.4999 4.63797L7.34855 12.4906L20.4999 20.3431L33.6514 12.4906L20.4999 4.63797Z" fill="#575757"/>
<path fill-rule="evenodd" clip-rule="evenodd" d="M40.4777 31.5916L37.8914 30.0472L20.4999 40.4314L3.10874 30.0472L0.522451 31.5916C0.371028 31.6819 0.244305 31.808 0.153469 31.9588C-0.152216 32.4658 0.0129978 33.1233 0.522451 33.4275L19.393 44.6949C20.0744 45.1017 20.9255 45.1017 21.6069 44.6949L40.4777 33.4275C40.6289 33.337 40.7556 33.2109 40.8467 33.0604C41.1522 32.5534 40.9869 31.8958 40.4777 31.5916ZM40.4777 21.5286L37.8914 19.9842L20.4999 30.3684L3.10874 19.9842L0.522451 21.5286C0.371028 21.6189 0.244305 21.745 0.153469 21.8958C-0.152216 22.4028 0.0129978 23.0603 0.522451 23.3645L20.4999 35.2928L40.4777 23.3645C40.6289 23.274 40.7556 23.1479 40.8467 22.9974C41.1522 22.4903 40.9869 21.8328 40.4777 21.5286Z" fill="#FF6400"/>
</g>
</svg>
