<svg width="48" height="52" viewBox="0 0 48 52" fill="none" xmlns="http://www.w3.org/2000/svg">
<g id="Vector">
<path fill-rule="evenodd" clip-rule="evenodd" d="M8.5 10.5C11.3535 10.5 13.6667 8.18677 13.6667 5.33329C13.6667 2.47982 11.3535 0.166626 8.5 0.166626C5.64653 0.166626 3.33333 2.47982 3.33333 5.33329C3.33333 8.18677 5.64653 10.5 8.5 10.5ZM5.91667 51.8333V36.3333H11.0833V51.8333H16.25V24.6016L20.1769 28.3102L29.7022 18.785L26.0488 15.1316L20.0741 21.1064L13.9401 15.3136C12.5409 13.9344 10.6199 13.0833 8.5 13.0833C4.2198 13.0833 0.75 16.5531 0.75 20.8333V51.8333H5.91667ZM5.91667 20.8333C5.91667 19.4066 7.07328 18.25 8.5 18.25C9.92672 18.25 11.0833 19.4066 11.0833 20.8333V31.1666H5.91667V20.8333Z" fill="#575757"/>
<path fill-rule="evenodd" clip-rule="evenodd" d="M42.0833 7.75H18.8333V2.58333H44.6667C46.0934 2.58333 47.25 3.73994 47.25 5.16667V33.5833C47.25 35.0101 46.0934 36.1667 44.6667 36.1667H35.8208L43.1149 51.6667H37.4047L30.1106 36.1667H18.8333V31H42.0833V7.75Z" fill="#FF6400"/>
</g>
</svg>
