<svg width="48" height="56" viewBox="0 0 48 56" fill="none" xmlns="http://www.w3.org/2000/svg">
<path id="Vector" d="M0 46.2V8.4C0 3.76082 3.58173 0 8 0H45.3333C46.8061 0 48 1.25362 48 2.8V53.2C48 54.7464 46.8061 56 45.3333 56H9.33333C4.17867 56 0 51.6124 0 46.2ZM42.6667 50.4V42H9.33333C7.12419 42 5.33333 43.8805 5.33333 46.2C5.33333 48.5195 7.12419 50.4 9.33333 50.4H42.6667ZM18.6667 5.6H8C6.52725 5.6 5.33333 6.85362 5.33333 8.4V37.343C6.54568 36.7382 7.90187 36.4 9.33333 36.4H42.6667V5.6H37.3333V28L28 22.4L18.6667 28V5.6Z" fill="#3E3E3E"/>
</svg>
