<svg width="22" height="19" viewBox="0 0 22 19" fill="none" xmlns="http://www.w3.org/2000/svg">
<g id="Vector">
<path fill-rule="evenodd" clip-rule="evenodd" d="M3.06426 6.9812C1.22429 8.1291 0 10.1716 0 12.5C0 15.9216 2.64378 18.7257 6 19L16 18.9811C19.3562 18.7257 22 15.9216 22 12.5C22 10.1716 20.7757 8.1291 18.9357 6.9812C18.4353 3.044 15.0731 0 11 0C6.92686 0 3.56469 3.044 3.06426 6.9812ZM20 12.5C20 14.8561 18.1817 16.8093 15.8483 16.9868L15.675 17H6.325L6.1517 16.9868C3.81833 16.8093 2 14.8561 2 12.5C2 10.927 2.81156 9.4962 4.12288 8.6781L4.92856 8.1754L5.0483 7.23338C5.42647 4.25803 7.97116 2 11 2C14.0288 2 16.5735 4.25803 16.9517 7.23338L17.0714 8.1754L17.8771 8.6781C19.1884 9.4962 20 10.927 20 12.5Z" fill="black" fill-opacity="0.6"/>
<path fill-rule="evenodd" clip-rule="evenodd" d="M15 10H12V6H10V10H7L11 15L15 10Z" fill="#FF6400"/>
</g>
</svg>
