<svg width="33" height="33" viewBox="0 0 33 33" fill="none" xmlns="http://www.w3.org/2000/svg">
<path fill-rule="evenodd" clip-rule="evenodd" d="M18.15 29.5979V19.8H21.45L22.275 16.5H18.15V13.7706C18.15 12.2571 18.2215 11.8869 18.4211 11.5136C18.545 11.282 18.7071 11.12 18.9386 10.9961C19.3119 10.7965 19.9365 10.725 21.45 10.725H22.275V7.59C21.4122 7.46679 20.709 7.42254 20.1658 7.45724C18.797 7.54466 18.0137 7.74847 17.3823 8.08615C16.5756 8.51756 15.9425 9.15063 15.5112 9.9573C15.0797 10.764 14.85 11.5641 14.85 13.7706V16.5H11.55V19.8H14.85V29.5979H18.15Z" fill="#FF6400"/>
<path fill-rule="evenodd" clip-rule="evenodd" d="M29.7 16.5C29.7 23.2313 24.6614 28.7859 18.15 29.5979H14.85C8.33858 28.7859 3.3 23.2313 3.3 16.5C3.3 9.20984 9.20983 3.3 16.5 3.3C23.7902 3.3 29.7 9.20984 29.7 16.5ZM0 16.5C0 25.6126 7.38729 33 16.5 33C25.6126 33 33 25.6126 33 16.5C33 7.3873 25.6126 0 16.5 0C7.38729 0 0 7.3873 0 16.5Z" fill="white"/>
</svg>
