<svg width="33" height="33" viewBox="0 0 33 33" fill="none" xmlns="http://www.w3.org/2000/svg">
<path fill-rule="evenodd" clip-rule="evenodd" d="M11.55 16.5C11.55 13.7661 13.7653 11.55 16.5 11.55C19.2339 11.55 21.45 13.7655 21.45 16.5C21.45 19.2339 19.2346 21.45 16.5 21.45C13.7661 21.45 11.55 19.2345 11.55 16.5ZM24.75 16.5C24.75 11.9412 21.0547 8.25 16.5 8.25C11.9412 8.25 8.24999 11.9452 8.24999 16.5C8.24999 21.0588 11.9452 24.75 16.5 24.75C21.0588 24.75 24.75 21.0548 24.75 16.5ZM25.1625 9.89863C26.2997 9.89863 27.225 8.97478 27.225 7.8361C27.225 6.69883 26.2982 5.77356 25.1625 5.775C24.0252 5.775 23.1 6.69883 23.1 7.8361C23.1 8.97336 24.0238 9.89863 25.1625 9.89863Z" fill="#FF6400"/>
<path fill-rule="evenodd" clip-rule="evenodd" d="M16.5 3.3C12.4171 3.3 11.7516 3.31081 9.85262 3.39537C8.55882 3.45611 7.69155 3.63012 6.88574 3.94296C6.16964 4.22068 5.65308 4.55232 5.10269 5.10271C4.55018 5.65521 4.21915 6.17039 3.94254 6.88682C3.62897 7.69448 3.45501 8.56038 3.39537 9.8524C3.30998 11.6741 3.3 12.3107 3.3 16.5C3.3 20.5829 3.3108 21.2484 3.39535 23.1472C3.45612 24.4405 3.63036 25.309 3.94244 26.1129C4.22089 26.83 4.5532 27.3478 5.10094 27.8956C5.65562 28.4495 6.17233 28.7816 6.88196 29.0555C7.69759 29.3708 8.56432 29.5451 9.85237 29.6046C11.6741 29.6899 12.3107 29.7 16.5 29.7C20.5829 29.7 21.2484 29.6891 23.1472 29.6046C24.4377 29.5441 25.3069 29.3693 26.1129 29.0575C26.828 28.7798 27.3474 28.4463 27.8956 27.899C28.4503 27.3435 28.7818 26.828 29.056 26.1167C29.3705 25.3041 29.5451 24.4362 29.6046 23.1477C29.6899 21.3259 29.7 20.6892 29.7 16.5C29.7 12.4171 29.6891 11.7516 29.6046 9.85276C29.5439 8.56195 29.3692 7.69146 29.057 6.88575C28.78 6.17163 28.4472 5.65348 27.8972 5.10271C27.3438 4.5493 26.83 4.21893 26.1131 3.94254C25.3061 3.62924 24.4388 3.45503 23.1475 3.39539C21.3259 3.30998 20.6892 3.3 16.5 3.3ZM16.5 0C20.9824 0 21.5421 0.0164999 23.3021 0.0989999C25.0579 0.18013 26.2556 0.457875 27.3075 0.86625C28.395 1.28563 29.3136 1.85212 30.2306 2.76924C31.1464 3.68638 31.713 4.60762 32.1338 5.6925C32.5406 6.743 32.8185 7.94199 32.901 9.69788C32.9794 11.4579 33 12.0175 33 16.5C33 20.9826 32.9835 21.5421 32.901 23.3021C32.8198 25.0581 32.5406 26.2556 32.1338 27.3075C31.7143 28.3952 31.1464 29.3136 30.2306 30.2308C29.3136 31.1466 28.3909 31.713 27.3075 32.1337C26.2556 32.5408 25.0579 32.8185 23.3021 32.901C21.5421 32.9794 20.9824 33 16.5 33C12.0175 33 11.4579 32.9835 9.69787 32.901C7.94199 32.8198 6.74574 32.5408 5.69249 32.1337C4.60623 31.7143 3.68636 31.1466 2.76924 30.2308C1.85212 29.3136 1.287 28.3911 0.866249 27.3075C0.457875 26.2556 0.1815 25.0581 0.0990002 23.3021C0.0206253 21.5421 0 20.9826 0 16.5C0 12.0175 0.0165003 11.4579 0.0990002 9.69788C0.180114 7.94062 0.457875 6.74437 0.866249 5.6925C1.28561 4.60626 1.85212 3.68638 2.76924 2.76924C3.68636 1.85212 4.60762 1.287 5.69249 0.86625C6.74437 0.457875 7.94062 0.1815 9.69787 0.0989999C11.4579 0.0206249 12.0175 0 16.5 0Z" fill="white"/>
</svg>
