<svg width="33" height="33" viewBox="0 0 33 33" fill="none" xmlns="http://www.w3.org/2000/svg">
<path fill-rule="evenodd" clip-rule="evenodd" d="M29.7 16.5C29.7 23.7902 23.7902 29.7 16.5 29.7C9.20983 29.7 3.3 23.7902 3.3 16.5C3.3 9.20984 9.20983 3.3 16.5 3.3C23.7902 3.3 29.7 9.20984 29.7 16.5ZM0 16.5C0 25.6126 7.38729 33 16.5 33C25.6126 33 33 25.6126 33 16.5C33 7.3873 25.6126 0 16.5 0C7.38729 0 0 7.3873 0 16.5Z" fill="white"/>
<path fill-rule="evenodd" clip-rule="evenodd" d="M7.24696 17.1453L11.3687 18.4318L11.3896 18.4186L12.8244 23.1556C13.0097 23.6679 13.2644 23.7593 13.5734 23.7176C13.8722 23.6771 14.0354 23.5193 14.2283 23.333C14.2348 23.3267 14.2413 23.3204 14.2479 23.314L16.2096 21.4208L20.4186 24.5352C21.1855 24.9589 21.7393 24.7403 21.9297 23.8222L24.665 10.9171C24.967 9.71589 24.4373 9.23413 23.5059 9.61544L7.44643 15.8187C6.35081 16.2591 6.35611 16.8721 7.24696 17.1453Z" fill="#FF6400"/>
</svg>
