<svg width="33" height="26" viewBox="0 0 33 26" fill="none" xmlns="http://www.w3.org/2000/svg">
<path fill-rule="evenodd" clip-rule="evenodd" d="M23.1 13L13.2 7.3125V18.6875L23.1 13Z" fill="#FF6400"/>
<path fill-rule="evenodd" clip-rule="evenodd" d="M28.1612 3.90468C28.5684 4.01734 28.924 4.38254 29.0497 4.86658C29.2293 5.55625 29.7 8.45 29.7 13C29.7 17.55 29.2293 20.4438 29.0497 21.1334C28.9224 21.6192 28.5668 21.9843 28.1634 22.0948C27.4377 22.294 23.925 22.75 16.5 22.75C9.07499 22.75 5.56304 22.2939 4.83702 22.0948C4.43153 21.9827 4.07596 21.6175 3.95079 21.1354C3.77077 20.4438 3.3 17.5565 3.3 13C3.3 8.44342 3.77077 5.55625 3.95029 4.86658C4.07767 4.38089 4.43318 4.01575 4.83659 3.90525C5.56304 3.70619 9.07499 3.25 16.5 3.25C23.925 3.25 27.4377 3.70601 28.1612 3.90468ZM33 13C33 13 33 6.955 32.2463 4.05954C31.8321 2.46408 30.6067 1.20546 29.0476 0.774085C26.2286 -2.23517e-07 16.5 0 16.5 0C16.5 0 6.77719 -2.23517e-07 3.95239 0.774085C2.39905 1.19954 1.17363 2.45819 0.753654 4.05954C3.02608e-07 6.955 0 13 0 13C0 13 3.02608e-07 19.045 0.753654 21.9404C1.16789 23.5358 2.39329 24.7946 3.95239 25.2258C6.77719 26 16.5 26 16.5 26C16.5 26 26.2286 26 29.0476 25.2258C30.6009 24.8004 31.8264 23.5419 32.2463 21.9404C33 19.045 33 13 33 13Z" fill="white"/>
</svg>
